<?xml version="1.0" encoding="UTF-8" standalone="no"?>
<svg
   version="1.1"
   viewBox="0 0 375 420"
   id="svg32"
   sodipodi:docname="snowflaker3.svg"
   inkscape:version="1.3 (0e150ed6c4, 2023-07-21)"
   xmlns:inkscape="http://www.inkscape.org/namespaces/inkscape"
   xmlns:sodipodi="http://sodipodi.sourceforge.net/DTD/sodipodi-0.dtd"
   xmlns="http://www.w3.org/2000/svg"
   xmlns:svg="http://www.w3.org/2000/svg">
  <defs
     id="defs32" />
  <sodipodi:namedview
     id="namedview32"
     pagecolor="#ffffff"
     bordercolor="#000000"
     borderopacity="0.25"
     inkscape:showpageshadow="2"
     inkscape:pageopacity="0.0"
     inkscape:pagecheckerboard="0"
     inkscape:deskcolor="#d1d1d1"
     showgrid="false"
     inkscape:zoom="1.3683333"
     inkscape:cx="187.81973"
     inkscape:cy="210.10962"
     inkscape:window-width="1920"
     inkscape:window-height="1017"
     inkscape:window-x="-8"
     inkscape:window-y="-8"
     inkscape:window-maximized="1"
     inkscape:current-layer="svg32" />
  <g
     fill="none"
     fill-rule="nonzero"
     stroke="currentColor"
     stroke-width="20"
     stroke-linecap="round"
     stroke-linejoin="miter"
     stroke-miterlimit="10"
     stroke-dasharray="none"
     stroke-dashoffset="0"
     font-family="none"
     font-weight="none"
     font-size="none"
     text-anchor="none"
     style="mix-blend-mode:normal"
     id="g31"
     transform="translate(-212.26683,-90)">
    <g
       id="Snowflake">
      <g
         id="g5">
        <line
           x1="400"
           y1="300"
           x2="400"
           y2="500"
           id="line1" />
        <polyline
           points="387.00209,339.83229 400,326.83438 412.99791,339.83229"
           id="polyline1" />
        <polyline
           points="391.4185,370.95742 400,362.37592 408.5815,370.95742"
           id="polyline2" />
        <polyline
           points="341.75059,429.12471 400,370.87529 458.24941,429.12471"
           id="polyline3" />
        <polyline
           points="339.72418,463.47125 400,403.19542 460.27582,463.47125"
           id="polyline4" />
        <polyline
           points="364.2067,484.56331 400,448.77002 435.7933,484.56331"
           id="polyline5" />
      </g>
      <g
         id="g10">
        <line
           x1="400"
           y1="300"
           x2="226.79492"
           y2="400"
           id="line5" />
        <polyline
           points="359.00527,308.65962 376.76075,313.41719 372.00318,331.17267"
           id="polyline6" />
        <polyline
           points="334.25832,328.04691 345.98087,331.18796 342.83982,342.91051"
           id="polyline7" />
        <polyline
           points="259.05002,314.11688 338.6202,335.43765 317.29943,415.00783"
           id="polyline8" />
        <polyline
           points="228.29184,329.53523 310.63014,351.59771 288.56766,433.93602"
           id="polyline9" />
        <polyline
           points="222.26683,361.28375 271.16138,374.38501 258.06013,423.27956"
           id="polyline10" />
      </g>
      <g
         id="g15">
        <line
           x1="400"
           y1="300"
           x2="226.79492"
           y2="200"
           id="line10" />
        <polyline
           points="372.00318,268.82733 376.76075,286.58281 359.00527,291.34038"
           id="polyline11" />
        <polyline
           points="342.83982,257.08949 345.98087,268.81204 334.25832,271.95309"
           id="polyline12" />
        <polyline
           points="317.29943,184.99217 338.6202,264.56235 259.05002,285.88312"
           id="polyline13" />
        <polyline
           points="288.56766,166.06398 310.63014,248.40229 228.29184,270.46477"
           id="polyline14" />
        <polyline
           points="258.06013,176.72044 271.16138,225.61499 222.26683,238.71625"
           id="polyline15" />
      </g>
      <g
         id="g20">
        <line
           x1="400"
           y1="300"
           x2="400"
           y2="100"
           id="line15" />
        <polyline
           points="412.99791,260.16771 400,273.16562 387.00209,260.16771"
           id="polyline16" />
        <polyline
           points="408.5815,229.04258 400,237.62408 391.4185,229.04258"
           id="polyline17" />
        <polyline
           points="458.24941,170.87529 400,229.12471 341.75059,170.87529"
           id="polyline18" />
        <polyline
           points="460.27582,136.52875 400,196.80458 339.72418,136.52875"
           id="polyline19" />
        <polyline
           points="435.7933,115.43669 400,151.22998 364.2067,115.43669"
           id="polyline20" />
      </g>
      <g
         id="g25">
        <line
           x1="400"
           y1="300"
           x2="573.20508"
           y2="200"
           id="line20" />
        <polyline
           points="440.99473,291.34038 423.23925,286.58281 427.99682,268.82733"
           id="polyline21" />
        <polyline
           points="465.74168,271.95309 454.01913,268.81204 457.16018,257.08949"
           id="polyline22" />
        <polyline
           points="540.94998,285.88312 461.3798,264.56235 482.70057,184.99217"
           id="polyline23" />
        <polyline
           points="571.70816,270.46477 489.36986,248.40229 511.43234,166.06398"
           id="polyline24" />
        <polyline
           points="577.73317,238.71625 528.83862,225.61499 541.93987,176.72044"
           id="polyline25" />
      </g>
      <g
         id="g30">
        <line
           x1="400"
           y1="300"
           x2="573.20508"
           y2="400"
           id="line25" />
        <polyline
           points="427.99682,331.17267 423.23925,313.41719 440.99473,308.65962"
           id="polyline26" />
        <polyline
           points="457.16018,342.91051 454.01913,331.18796 465.74168,328.04691"
           id="polyline27" />
        <polyline
           points="482.70057,415.00783 461.3798,335.43765 540.94998,314.11688"
           id="polyline28" />
        <polyline
           points="511.43234,433.93602 489.36986,351.59771 571.70816,329.53523"
           id="polyline29" />
        <polyline
           points="541.93987,423.27956 528.83862,374.38501 577.73317,361.28375"
           id="polyline30" />
      </g>
    </g>
  </g>
</svg>
