<?xml version="1.0" encoding="UTF-8" standalone="no"?>
<svg
   version="1.1"
   viewBox="0 0 366 420"
   id="svg32"
   sodipodi:docname="snowflaker2.svg"
   inkscape:version="1.3 (0e150ed6c4, 2023-07-21)"
   xmlns:inkscape="http://www.inkscape.org/namespaces/inkscape"
   xmlns:sodipodi="http://sodipodi.sourceforge.net/DTD/sodipodi-0.dtd"
   xmlns="http://www.w3.org/2000/svg"
   xmlns:svg="http://www.w3.org/2000/svg">
  <defs
     id="defs32" />
  <sodipodi:namedview
     id="namedview32"
     pagecolor="#ffffff"
     bordercolor="#000000"
     borderopacity="0.25"
     inkscape:showpageshadow="2"
     inkscape:pageopacity="0.0"
     inkscape:pagecheckerboard="0"
     inkscape:deskcolor="#d1d1d1"
     showgrid="false"
     inkscape:zoom="1.3683333"
     inkscape:cx="182.70402"
     inkscape:cy="210.10962"
     inkscape:window-width="1920"
     inkscape:window-height="1017"
     inkscape:window-x="-8"
     inkscape:window-y="-8"
     inkscape:window-maximized="1"
     inkscape:current-layer="svg32" />
  <g
     fill="none"
     fill-rule="nonzero"
     stroke="currentColor"
     stroke-width="20"
     stroke-linecap="round"
     stroke-linejoin="miter"
     stroke-miterlimit="10"
     stroke-dasharray="none"
     stroke-dashoffset="0"
     font-family="none"
     font-weight="none"
     font-size="none"
     text-anchor="none"
     style="mix-blend-mode:normal"
     id="g31"
     transform="translate(-216.79492,-90)">
    <g
       id="Snowflake">
      <g
         id="g5">
        <line
           x1="400"
           y1="300"
           x2="400"
           y2="500"
           id="line1" />
        <polyline
           points="375.90613,345.38027 400,321.2864 424.09387,345.38027"
           id="polyline1" />
        <polyline
           points="338.85321,397.24006 400,336.09327 461.14679,397.24006"
           id="polyline2" />
        <polyline
           points="337.27385,431.36308 400,368.63692 462.72615,431.36308"
           id="polyline3" />
        <polyline
           points="352.51894,457.07386 400,409.5928 447.48106,457.07386"
           id="polyline4" />
        <polyline
           points="374.96237,479.18548 400,454.14785 425.03763,479.18548"
           id="polyline5" />
      </g>
      <g
         id="g10">
        <line
           x1="400"
           y1="300"
           x2="226.79492"
           y2="400"
           id="line5" />
        <polyline
           points="348.6526,301.82423 381.56544,310.6432 372.74647,343.55604"
           id="polyline6" />
        <polyline
           points="285.21424,295.66536 368.74231,318.04664 346.36103,401.5747"
           id="polyline7" />
        <polyline
           points="254.87316,311.3591 340.55868,334.31846 317.59932,420.00398"
           id="polyline8" />
        <polyline
           points="240.22952,337.41713 305.08985,354.7964 287.71057,419.65673"
           id="polyline9" />
        <polyline
           points="232.30201,367.90952 266.50404,377.07393 257.33964,411.27596"
           id="polyline10" />
      </g>
      <g
         id="g15">
        <line
           x1="400"
           y1="300"
           x2="226.79492"
           y2="200"
           id="line10" />
        <polyline
           points="372.74647,256.44396 381.56544,289.3568 348.6526,298.17577"
           id="polyline11" />
        <polyline
           points="346.36103,198.4253 368.74231,281.95336 285.21424,304.33464"
           id="polyline12" />
        <polyline
           points="317.59932,179.99602 340.55868,265.68154 254.87316,288.6409"
           id="polyline13" />
        <polyline
           points="287.71057,180.34327 305.08985,245.2036 240.22952,262.58287"
           id="polyline14" />
        <polyline
           points="257.33964,188.72404 266.50404,222.92607 232.30201,232.09048"
           id="polyline15" />
      </g>
      <g
         id="g20">
        <line
           x1="400"
           y1="300"
           x2="400"
           y2="100"
           id="line15" />
        <polyline
           points="424.09387,254.61973 400,278.7136 375.90613,254.61973"
           id="polyline16" />
        <polyline
           points="461.14679,202.75994 400,263.90673 338.85321,202.75994"
           id="polyline17" />
        <polyline
           points="462.72615,168.63692 400,231.36308 337.27385,168.63692"
           id="polyline18" />
        <polyline
           points="447.48106,142.92614 400,190.4072 352.51894,142.92614"
           id="polyline19" />
        <polyline
           points="425.03763,120.81452 400,145.85215 374.96237,120.81452"
           id="polyline20" />
      </g>
      <g
         id="g25">
        <line
           x1="400"
           y1="300"
           x2="573.20508"
           y2="200"
           id="line20" />
        <polyline
           points="451.3474,298.17577 418.43456,289.3568 427.25353,256.44396"
           id="polyline21" />
        <polyline
           points="514.78576,304.33464 431.25769,281.95336 453.63897,198.4253"
           id="polyline22" />
        <polyline
           points="545.12684,288.6409 459.44132,265.68154 482.40068,179.99602"
           id="polyline23" />
        <polyline
           points="559.77048,262.58287 494.91015,245.2036 512.28943,180.34327"
           id="polyline24" />
        <polyline
           points="567.69799,232.09048 533.49596,222.92607 542.66036,188.72404"
           id="polyline25" />
      </g>
      <g
         id="g30">
        <line
           x1="400"
           y1="300"
           x2="573.20508"
           y2="400"
           id="line25" />
        <polyline
           points="427.25353,343.55604 418.43456,310.6432 451.3474,301.82423"
           id="polyline26" />
        <polyline
           points="453.63897,401.5747 431.25769,318.04664 514.78576,295.66536"
           id="polyline27" />
        <polyline
           points="482.40068,420.00398 459.44132,334.31846 545.12684,311.3591"
           id="polyline28" />
        <polyline
           points="512.28943,419.65673 494.91015,354.7964 559.77048,337.41713"
           id="polyline29" />
        <polyline
           points="542.66036,411.27596 533.49596,377.07393 567.69799,367.90952"
           id="polyline30" />
      </g>
    </g>
  </g>
</svg>
