<?xml version="1.0" encoding="UTF-8" standalone="no"?>
<svg
   version="1.1"
   viewBox="0 0 376 420"
   id="svg32"
   sodipodi:docname="snowflaker1.svg"
   inkscape:version="1.3 (0e150ed6c4, 2023-07-21)"
   xmlns:inkscape="http://www.inkscape.org/namespaces/inkscape"
   xmlns:sodipodi="http://sodipodi.sourceforge.net/DTD/sodipodi-0.dtd"
   xmlns="http://www.w3.org/2000/svg"
   xmlns:svg="http://www.w3.org/2000/svg">
  <defs
     id="defs32" />
  <sodipodi:namedview
     id="namedview32"
     pagecolor="#ffffff"
     bordercolor="#000000"
     borderopacity="0.25"
     inkscape:showpageshadow="2"
     inkscape:pageopacity="0.0"
     inkscape:pagecheckerboard="0"
     inkscape:deskcolor="#d1d1d1"
     inkscape:zoom="1.3683333"
     inkscape:cx="187.81973"
     inkscape:cy="210.10962"
     inkscape:window-width="1920"
     inkscape:window-height="1017"
     inkscape:window-x="-8"
     inkscape:window-y="-8"
     inkscape:window-maximized="1"
     inkscape:current-layer="svg32" />
  <g
     fill="none"
     fill-rule="nonzero"
     stroke="currentColor"
     stroke-width="20"
     stroke-linecap="round"
     stroke-linejoin="miter"
     stroke-miterlimit="10"
     stroke-dasharray="none"
     stroke-dashoffset="0"
     font-family="none"
     font-weight="none"
     font-size="none"
     text-anchor="none"
     style="mix-blend-mode:normal;fill:none;fill-opacity:1"
     id="g31"
     transform="translate(-211.93677,-90)">
    <g
       id="Snowflake"
       style="fill:none;fill-opacity:1">
      <g
         id="g5"
         style="fill:none;fill-opacity:1">
        <line
           x1="400"
           y1="300"
           x2="400"
           y2="500"
           id="line1"
           style="fill:none;fill-opacity:1" />
        <polyline
           points="343.82313,361.42177 400,305.2449 456.17687,361.42177"
           id="polyline1"
           style="fill:none;fill-opacity:1" />
        <polyline
           points="335.4815,398.92592 400,334.40742 464.5185,398.92592"
           id="polyline2"
           style="fill:none;fill-opacity:1" />
        <polyline
           points="365.93864,417.03068 400,382.96932 434.06136,417.03068"
           id="polyline3"
           style="fill:none;fill-opacity:1" />
        <polyline
           points="387.37832,439.64417 400,427.02249 412.62168,439.64417"
           id="polyline4"
           style="fill:none;fill-opacity:1" />
        <polyline
           points="363.85295,484.74019 400,448.59314 436.14705,484.74019"
           id="polyline5"
           style="fill:none;fill-opacity:1" />
      </g>
      <g
         id="g10"
         style="fill:none;fill-opacity:1">
        <line
           x1="400"
           y1="300"
           x2="226.79492"
           y2="400"
           id="line5"
           style="fill:none;fill-opacity:1" />
        <polyline
           points="318.71875,282.06029 395.45779,302.62245 374.89562,379.36148"
           id="polyline6"
           style="fill:none;fill-opacity:1" />
        <polyline
           points="282.06839,293.5883 370.2023,317.20371 346.58689,405.33762"
           id="polyline7"
           style="fill:none;fill-opacity:1" />
        <polyline
           points="281.61778,329.01734 328.14646,341.48466 315.67914,388.01334"
           id="polyline8"
           style="fill:none;fill-opacity:1" />
        <polyline
           points="272.75376,358.89139 289.99529,363.51125 285.37544,380.75278"
           id="polyline9"
           style="fill:none;fill-opacity:1" />
        <polyline
           points="221.93677,361.06583 271.31457,374.29657 258.08383,423.67436"
           id="polyline10"
           style="fill:none;fill-opacity:1" />
      </g>
      <g
         id="g15"
         style="fill:none;fill-opacity:1">
        <line
           x1="400"
           y1="300"
           x2="226.79492"
           y2="200"
           id="line10"
           style="fill:none;fill-opacity:1" />
        <polyline
           points="374.89562,220.63852 395.45779,297.37755 318.71875,317.93971"
           id="polyline11"
           style="fill:none;fill-opacity:1" />
        <polyline
           points="346.58689,194.66238 370.2023,282.79629 282.06839,306.4117"
           id="polyline12"
           style="fill:none;fill-opacity:1" />
        <polyline
           points="315.67914,211.98666 328.14646,258.51534 281.61778,270.98266"
           id="polyline13"
           style="fill:none;fill-opacity:1" />
        <polyline
           points="285.37544,219.24722 289.99529,236.48875 272.75376,241.10861"
           id="polyline14"
           style="fill:none;fill-opacity:1" />
        <polyline
           points="258.08383,176.32564 271.31457,225.70343 221.93677,238.93417"
           id="polyline15"
           style="fill:none;fill-opacity:1" />
      </g>
      <g
         id="g20"
         style="fill:none;fill-opacity:1">
        <line
           x1="400"
           y1="300"
           x2="400"
           y2="100"
           id="line15"
           style="fill:none;fill-opacity:1" />
        <polyline
           points="456.17687,238.57823 400,294.7551 343.82313,238.57823"
           id="polyline16"
           style="fill:none;fill-opacity:1" />
        <polyline
           points="464.5185,201.07408 400,265.59258 335.4815,201.07408"
           id="polyline17"
           style="fill:none;fill-opacity:1" />
        <polyline
           points="434.06136,182.96932 400,217.03068 365.93864,182.96932"
           id="polyline18"
           style="fill:none;fill-opacity:1" />
        <polyline
           points="412.62168,160.35583 400,172.97751 387.37832,160.35583"
           id="polyline19"
           style="fill:none;fill-opacity:1" />
        <polyline
           points="436.14705,115.25981 400,151.40686 363.85295,115.25981"
           id="polyline20"
           style="fill:none;fill-opacity:1" />
      </g>
      <g
         id="g25"
         style="fill:none;fill-opacity:1">
        <line
           x1="400"
           y1="300"
           x2="573.20508"
           y2="200"
           id="line20"
           style="fill:none;fill-opacity:1" />
        <polyline
           points="481.28125,317.93971 404.54221,297.37755 425.10438,220.63852"
           id="polyline21"
           style="fill:none;fill-opacity:1" />
        <polyline
           points="517.93161,306.4117 429.7977,282.79629 453.41311,194.66238"
           id="polyline22"
           style="fill:none;fill-opacity:1" />
        <polyline
           points="518.38222,270.98266 471.85354,258.51534 484.32086,211.98666"
           id="polyline23"
           style="fill:none;fill-opacity:1" />
        <polyline
           points="527.24624,241.10861 510.00471,236.48875 514.62456,219.24722"
           id="polyline24"
           style="fill:none;fill-opacity:1" />
        <polyline
           points="578.06323,238.93417 528.68543,225.70343 541.91617,176.32564"
           id="polyline25"
           style="fill:none;fill-opacity:1" />
      </g>
      <g
         id="g30"
         style="fill:none;fill-opacity:1">
        <line
           x1="400"
           y1="300"
           x2="573.20508"
           y2="400"
           id="line25"
           style="fill:none;fill-opacity:1" />
        <polyline
           points="425.10438,379.36148 404.54221,302.62245 481.28125,282.06029"
           id="polyline26"
           style="fill:none;fill-opacity:1" />
        <polyline
           points="453.41311,405.33762 429.7977,317.20371 517.93161,293.5883"
           id="polyline27"
           style="fill:none;fill-opacity:1" />
        <polyline
           points="484.32086,388.01334 471.85354,341.48466 518.38222,329.01734"
           id="polyline28"
           style="fill:none;fill-opacity:1" />
        <polyline
           points="514.62456,380.75278 510.00471,363.51125 527.24624,358.89139"
           id="polyline29"
           style="fill:none;fill-opacity:1" />
        <polyline
           points="541.91617,423.67436 528.68543,374.29657 578.06323,361.06583"
           id="polyline30"
           style="fill:none;fill-opacity:1" />
      </g>
    </g>
  </g>
</svg>
