<!-- icon666.com - MILLIONS OF FREE VECTOR ICONS -->
<svg version="1.1" id="Capa_1" xmlns="http://www.w3.org/2000/svg"
    xmlns:xlink="http://www.w3.org/1999/xlink" x="0px" y="0px" viewBox="0 0 512 512" width="64" height="64"
    style="enable-background:new 0 0 512 512;" xml:space="preserve">
    <polygon style="fill:#FF6C59;" points="367.215,435.2 366.276,503.467 290.415,503.467 341.615,435.2 "></polygon>
    <polygon style="fill:#FF513B;" points="303.129,377.088 341.615,435.2 290.415,503.467 208.324,377.088 "></polygon>
    <path style="fill:#FF6136;" d="M355.78,50.688c27.375,25.924,35.593,66.202,20.565,100.779l-52.139,120.32l-52.651-42.155 L355.78,50.688z"></path>
    <path style="fill:#FF3F26;" d="M324.207,271.787v16.128c-0.009,30.959-7.228,61.483-21.077,89.173h-94.805l-23.637-25.685 c-73.259-79.505-75.426-201.25-5.035-283.307l10.752-12.544c25.574-29.858,62.925-47.036,102.229-47.019l-21.077,221.099 L324.207,271.787z"></path>
    <g><path style="fill:#FF8D6E;" d="M188.322,131.857l-15.3-7.552c6.997-14.208,15.727-27.494,25.993-39.552l12.988,11.093 C202.658,106.829,194.705,118.921,188.322,131.857z"></path><path style="fill:#FF8D6E;" d="M222.856,83.26l-13.013-11.034c7.714-9.079,16.879-16.811,27.127-22.895L245.726,64 C237.09,69.111,229.367,75.622,222.856,83.26z"></path><rect x="153.856" y="179.2" style="fill:#FF8D6E;" width="17.067" height="17.067"></rect><rect x="187.989" y="196.267" style="fill:#FF8D6E;" width="17.067" height="17.067"></rect><rect x="170.922" y="247.467" style="fill:#FF8D6E;" width="17.067" height="17.067"></rect><rect x="153.856" y="213.333" style="fill:#FF8D6E;" width="17.067" height="17.067"></rect></g><path d="M173.022,124.305l15.3,7.552c6.374-12.945,14.336-25.045,23.68-36.036l-12.988-11.093 C188.749,96.794,180.019,110.089,173.022,124.305z"></path><path d="M209.843,72.226l13.013,11.034c6.511-7.637,14.234-14.148,22.869-19.26l-8.755-14.669 C226.722,55.415,217.557,63.147,209.843,72.226z"></path><path d="M361.651,44.501c-3.422-3.243-8.823-3.098-12.066,0.324c-0.623,0.657-1.143,1.417-1.527,2.236l-63.36,134.622L301.124,9.387 c0.469-4.693-2.944-8.875-7.637-9.344C293.188,0.017,292.889,0,292.591,0c-41.788-0.009-81.485,18.261-108.663,49.997 l-10.752,12.544c-73.182,85.342-70.938,211.942,5.231,294.63l23.142,25.165l81.707,125.781l0.068-0.043 c1.553,2.415,4.215,3.891,7.091,3.925h75.861c4.668,0,8.465-3.746,8.533-8.414l0.939-68.267c0.068-4.71-3.703-8.585-8.414-8.653 c-0.043,0-0.077,0-0.119,0h-21.018l-33.323-50.347c13.013-27.657,19.789-57.839,19.866-88.405v-14.353l51.43-118.699 C400.537,116.992,391.552,72.934,361.651,44.501z M358.562,443.733l-0.734,51.2h-50.347l38.4-51.2H358.562z M331.178,434.901 l-40.26,53.675l-66.876-102.955h74.505L331.178,434.901z M315.673,287.915c-0.068,27.87-6.204,55.39-17.988,80.64H212.07 L190.976,345.6c-70.349-76.314-72.431-193.203-4.855-271.974l10.761-12.527c21.811-25.472,52.89-41.19,86.332-43.682 l-20.105,211.337v0.068l0,0c-0.273,2.859,0.913,5.666,3.149,7.467l49.493,39.595L315.673,287.915z M368.512,148.079l-47.701,110.08 l-38.673-30.985l75.947-161.28C376.286,89.335,380.288,120.832,368.512,148.079z"></path><rect x="153.856" y="179.2" width="17.067" height="17.067"></rect><rect x="187.989" y="196.267" width="17.067" height="17.067"></rect><rect x="170.922" y="247.467" width="17.067" height="17.067"></rect><rect x="153.856" y="213.333" width="17.067" height="17.067"></rect></svg>