<?xml version="1.0" encoding="UTF-8" standalone="no"?>
<svg
   fill="#344955"
   viewBox="0 0 22.139496 17.012306"
   version="1.1"
   width="22.139496"
   height="17.012306"
   xmlns="http://www.w3.org/2000/svg">
  <path d="m 16.139031,1.8650566 -6.062,3.5 c -0.4789997,0.276 -1.0899997,0.112 -1.3649997,-0.366 -0.277,-0.478 -0.113,-1.09 0.365,-1.365 L 15.139031,0.13405661 c 0.479,-0.276 1.09,-0.112 1.366,0.365 0.276,0.477 0.112,1.08899999 -0.366,1.36599999 z m -5.563,4.366 6.062,-3.5 3.5,6.062 -6.062,3.5000004 z m 11.063,5.1600004 -6.062,3.5 c -0.478,0.276 -1.09,0.112 -1.365,-0.366 -0.275,-0.478 -0.112,-1.09 0.365,-1.365 l 6.062,-3.5000004 c 0.479,-0.276 1.09,-0.112 1.366,0.3650004 0.277,0.478 0.112,1.09 -0.366,1.366 z m -20.88899961,2.822 11.07599961,-5.8170004 1,1.7320004 -10.5759996,6.683 c -0.717,0.414 -1.63500001,0.169 -2.04900001,-0.549 -0.414,-0.718 -0.168,-1.635 0.549,-2.049 z"/>
</svg>
